<mxfile host="app.diagrams.net" modified="2024-04-20T19:32:53.020Z" agent="Mozilla/5.0 (Windows NT 10.0; Win64; x64; rv:125.0) Gecko/20100101 Firefox/125.0" version="24.2.7" etag="zh3F8MSLsmAjPkLT9YiP" type="github">
  <diagram name="Page-1" id="acd3vOSOt2X2SPMc3DC2">
    <mxGraphModel>
      <root>
        <mxCell id="0" />
        <mxCell id="1" parent="0" />
      </root>
    </mxGraphModel>
  </diagram>
</mxfile>
